<?xml version="1.0" encoding="UTF-8" standalone="no"?>
<!DOCTYPE svg PUBLIC "-//W3C//DTD SVG 1.1//EN" "http://www.w3.org/Graphics/SVG/1.1/DTD/svg11.dtd">
<svg width="100%" height="100%" viewBox="0 0 800 800" version="1.1" xmlns="http://www.w3.org/2000/svg" xmlns:xlink="http://www.w3.org/1999/xlink" xml:space="preserve" xmlns:serif="http://www.serif.com/" style="fill-rule:evenodd;clip-rule:evenodd;stroke-linecap:round;stroke-linejoin:round;">
    <g id="House" transform="matrix(0.745,0,0,0.745,210,175.416)">
        <path d="M466.667,700.003L466.667,500.003L333.333,500.003L333.333,700.003M633.333,325.939L633.333,540.003C633.333,596.007 633.333,624.01 622.433,645.4C612.847,664.217 597.55,679.517 578.733,689.103C557.34,700.003 529.34,700.003 473.333,700.003L326.667,700.003C270.661,700.003 242.659,700.003 221.268,689.103C202.451,679.517 187.153,664.217 177.566,645.4C166.667,624.01 166.667,596.007 166.667,540.003L166.667,325.918M700,400.003L518.893,198.802C477.703,153.043 457.11,130.163 432.853,121.717C411.553,114.298 388.367,114.3 367.063,121.722C342.81,130.172 322.22,153.054 281.038,198.819L100,400.003" style="fill:none;fill-rule:nonzero;stroke:black;stroke-width:93.96px;"/>
    </g>
    <g id="House1" transform="matrix(0.5375,0,0,0.5375,252.75,40.7482)">
        <path d="M731.628,427.085L518.893,198.802C477.703,153.043 457.11,130.163 432.853,121.717C411.553,114.298 388.367,114.3 367.063,121.722C342.81,130.172 298.034,175.38 256.852,221.145" style="fill:none;fill-rule:nonzero;stroke:black;stroke-width:102.33px;"/>
        <path d="M113.246,380.762L59.07,439.073" style="fill:none;fill-rule:nonzero;stroke:black;stroke-width:102.33px;"/>
    </g>
    <g id="House2" transform="matrix(0.82902,0,0,0.82902,-18.7997,14.3998)">
        <g transform="matrix(0.7921,0,0,0.805978,17.0478,46.0032)">
            <path d="M597.97,284.764L518.893,198.802C477.703,153.043 457.11,130.163 432.853,121.717C411.553,114.298 388.367,114.3 367.063,121.722C342.81,130.172 322.22,153.054 281.038,198.819L100,400.003" style="fill:none;fill-rule:nonzero;stroke:black;stroke-width:90.57px;"/>
        </g>
        <g transform="matrix(0.7921,0,0,0.805978,17.0478,46.0032)">
            <path d="M637.563,560.956C637.563,616.959 633.333,624.01 622.433,645.4" style="fill:none;fill-rule:nonzero;stroke:black;stroke-width:90.57px;"/>
        </g>
        <g transform="matrix(0.7921,0,0,0.805978,17.0478,46.0032)">
            <path d="M356.67,697.278C276.036,697.074 231.546,694.341 221.268,689.103C202.451,679.517 187.153,664.217 177.566,645.4C166.667,624.01 166.667,596.007 166.667,540.003L166.667,325.918" style="fill:none;fill-rule:nonzero;stroke:black;stroke-width:90.57px;"/>
        </g>
    </g>
    <g id="House3" transform="matrix(0.745,0,0,0.745,210,175.416)">
        <path d="M466.667,700.003L466.667,500.003L333.333,500.003L333.333,700.003M633.333,325.939L633.333,540.003C633.333,596.007 633.333,624.01 622.433,645.4C612.847,664.217 597.55,679.517 578.733,689.103C557.34,700.003 529.34,700.003 473.333,700.003L326.667,700.003C270.661,700.003 242.659,700.003 221.268,689.103C202.451,679.517 187.153,664.217 177.566,645.4C166.667,624.01 166.667,596.007 166.667,540.003L166.667,325.918M700,400.003L518.893,198.802C477.703,153.043 457.11,130.163 432.853,121.717C411.553,114.298 388.367,114.3 367.063,121.722C342.81,130.172 322.22,153.054 281.038,198.819L100,400.003" style="fill:none;fill-rule:nonzero;stroke:white;stroke-width:66.67px;"/>
    </g>
    <g id="House4" transform="matrix(0.5375,0,0,0.5375,252.75,40.7482)">
        <path d="M731.628,427.085L518.893,198.802C477.703,153.043 457.11,130.163 432.853,121.717C411.553,114.298 388.367,114.3 367.063,121.722C342.81,130.172 298.034,175.38 256.852,221.145" style="fill:none;fill-rule:nonzero;stroke:white;stroke-width:66.67px;"/>
        <path d="M113.246,380.762L59.07,439.073" style="fill:none;fill-rule:nonzero;stroke:white;stroke-width:66.67px;"/>
    </g>
    <g id="House5" transform="matrix(0.82902,0,0,0.82902,-18.7997,14.3998)">
        <g transform="matrix(0.7921,0,0,0.805978,17.0478,46.0032)">
            <path d="M597.97,284.764L518.893,198.802C477.703,153.043 457.11,130.163 432.853,121.717C411.553,114.298 388.367,114.3 367.063,121.722C342.81,130.172 322.22,153.054 281.038,198.819L100,400.003" style="fill:none;fill-rule:nonzero;stroke:white;stroke-width:66.67px;"/>
        </g>
        <g transform="matrix(0.7921,0,0,0.805978,17.0478,46.0032)">
            <path d="M637.563,560.956C637.563,616.959 633.333,624.01 622.433,645.4" style="fill:none;fill-rule:nonzero;stroke:white;stroke-width:66.67px;"/>
        </g>
        <g transform="matrix(0.7921,0,0,0.805978,17.0478,46.0032)">
            <path d="M356.67,697.278C276.036,697.074 231.546,694.341 221.268,689.103C202.451,679.517 187.153,664.217 177.566,645.4C166.667,624.01 166.667,596.007 166.667,540.003L166.667,325.918" style="fill:none;fill-rule:nonzero;stroke:white;stroke-width:66.67px;"/>
        </g>
    </g>
</svg>
