<?xml version="1.0" encoding="UTF-8" standalone="no"?>
<!DOCTYPE svg PUBLIC "-//W3C//DTD SVG 1.1//EN" "http://www.w3.org/Graphics/SVG/1.1/DTD/svg11.dtd">
<svg width="100%" height="100%" viewBox="0 0 1080 1080" version="1.1" xmlns="http://www.w3.org/2000/svg" xmlns:xlink="http://www.w3.org/1999/xlink" xml:space="preserve" xmlns:serif="http://www.serif.com/" style="fill-rule:evenodd;clip-rule:evenodd;stroke-linecap:round;stroke-linejoin:round;stroke-miterlimit:1.5;">
    <rect id="Slime1" x="0" y="0" width="1080" height="1080" style="fill:none;"/>
    <g id="Slime11" serif:id="Slime1">
        <g transform="matrix(1.28337,0,0,1.16811,-180.035,-185.45)">
            <path d="M561.05,323.265C766.297,323.265 932.931,469.719 932.931,634.069C932.931,710.653 913.233,798.053 853.822,850.837C785.735,911.329 670.646,917.319 561.05,918.829C509.456,919.539 354.945,911.263 278.383,852.428C191.728,785.838 185.79,665.391 189.168,621.047C201.651,457.171 355.803,323.265 561.05,323.265Z" style="fill:rgb(148,185,230);"/>
        </g>
        <g transform="matrix(1.28337,0,0,1.16811,-180.035,-185.45)">
            <path d="M278.102,852.212C191.715,785.577 185.794,665.343 189.168,621.047C201.651,457.171 355.803,323.265 561.05,323.265C766.297,323.265 932.931,469.719 932.931,634.069C932.931,710.653 913.233,798.053 853.822,850.837C785.735,911.329 670.646,917.319 561.05,918.829C539.159,919.13 498.742,917.814 453.613,911.705C487,915.475 516.069,916.322 532.794,916.092C628.819,914.77 729.658,909.521 789.314,856.519C841.369,810.271 858.628,733.693 858.628,666.592C858.628,522.592 712.627,394.273 532.794,394.273C352.961,394.273 217.897,511.598 206.96,655.182C204.094,692.801 208.88,792.929 278.102,852.212Z" style="fill:rgb(226,243,247);"/>
        </g>
        <g transform="matrix(0.892074,0.451889,-0.451889,0.892074,-79.5914,-257.357)">
            <path d="M576.643,605.299C660.044,577.719 744.958,554.269 838.673,554.847" style="fill:none;stroke:rgb(104,115,168);stroke-width:26px;"/>
        </g>
        <g transform="matrix(-0.928107,0.372314,0.372314,0.928107,1132.93,-221.946)">
            <path d="M576.643,605.299C660.044,577.719 744.958,554.269 838.673,554.847" style="fill:none;stroke:rgb(104,115,168);stroke-width:26px;"/>
        </g>
        <g transform="matrix(0.999986,0.00532957,-0.00532957,0.999986,8.8923,-3.4187)">
            <path d="M561.132,569.389C561.132,569.389 588.969,553.506 612.634,549.122" style="fill:none;stroke:rgb(104,115,168);stroke-width:10px;"/>
        </g>
        <g transform="matrix(-0.993731,-0.1118,-0.1118,0.993731,1037.97,78.5512)">
            <path d="M561.132,569.389C561.132,569.389 588.969,553.506 612.634,549.122" style="fill:none;stroke:rgb(104,115,168);stroke-width:10px;"/>
        </g>
    </g>
</svg>
